<svg width="64" height="62" viewBox="0 0 64 62" fill="none" xmlns="http://www.w3.org/2000/svg">
<path fill-rule="evenodd" clip-rule="evenodd" d="M32 60C48.5685 60 62 46.5685 62 30C62 13.4315 48.5685 0 32 0C15.4315 0 2 13.4315 2 30C2 46.5685 15.4315 60 32 60Z" fill="#DF5060" stroke="white" stroke-width="4"/>
<path fill-rule="evenodd" clip-rule="evenodd" d="M44.3061 39.7347C45.0408 40.4694 45.0408 41.5714 44.3061 42.3061C43.9387 42.6734 43.5714 42.8571 43.0204 42.8571C42.4694 42.8571 42.102 42.6734 41.7347 42.3061L32 32.5714L22.2653 42.3061C21.8979 42.6734 21.5306 42.8571 20.9796 42.8571C20.4285 42.8571 20.0612 42.6734 19.6938 42.3061C18.9591 41.5714 18.9591 40.4694 19.6938 39.7347L29.4285 30L19.6938 20.2653C18.9591 19.5306 18.9591 18.4285 19.6938 17.6938C20.4285 16.9591 21.5306 16.9591 22.2653 17.6938L32 27.4285L41.7347 17.6938C42.4694 16.9591 43.5714 16.9591 44.3061 17.6938C45.0408 18.4285 45.0408 19.5306 44.3061 20.2653L34.5714 30L44.3061 39.7347Z" fill="white"/>
<mask id="mask0_2003_16584" style="mask-type:alpha" maskUnits="userSpaceOnUse" x="19" y="17" width="26" height="26">
<path fill-rule="evenodd" clip-rule="evenodd" d="M44.3061 39.7347C45.0408 40.4694 45.0408 41.5714 44.3061 42.3061C43.9387 42.6734 43.5714 42.8571 43.0204 42.8571C42.4694 42.8571 42.102 42.6734 41.7347 42.3061L32 32.5714L22.2653 42.3061C21.8979 42.6734 21.5306 42.8571 20.9796 42.8571C20.4285 42.8571 20.0612 42.6734 19.6938 42.3061C18.9591 41.5714 18.9591 40.4694 19.6938 39.7347L29.4285 30L19.6938 20.2653C18.9591 19.5306 18.9591 18.4285 19.6938 17.6938C20.4285 16.9591 21.5306 16.9591 22.2653 17.6938L32 27.4285L41.7347 17.6938C42.4694 16.9591 43.5714 16.9591 44.3061 17.6938C45.0408 18.4285 45.0408 19.5306 44.3061 20.2653L34.5714 30L44.3061 39.7347Z" fill="white"/>
</mask>
<g mask="url(#mask0_2003_16584)">
</g>
</svg>
