<svg width="64" height="62" viewBox="0 0 64 62" fill="none" xmlns="http://www.w3.org/2000/svg">
<path fill-rule="evenodd" clip-rule="evenodd" d="M32 60C48.5685 60 62 46.5685 62 30C62 13.4315 48.5685 0 32 0C15.4315 0 2 13.4315 2 30C2 46.5685 15.4315 60 32 60Z" fill="#FFA500" stroke="white" stroke-width="4"/>
<path fill-rule="evenodd" clip-rule="evenodd" d="M37.1839 12.0705C36.2846 11.8042 35.3393 12.3152 35.0694 13.2135L30.6346 28.7582L21.8678 36.4277C21.1591 37.055 21.0878 38.1359 21.7078 38.8509C22.335 39.5596 23.416 39.6309 24.1309 39.0109L33.2749 31.0099C33.523 30.7917 33.7019 30.5057 33.7893 30.187L38.3612 14.1851C38.4878 13.7485 38.4347 13.2794 38.2135 12.8823C37.9924 12.4851 37.6217 12.1929 37.1839 12.0705Z" fill="white"/>
</svg>
