<svg width="24" height="25" viewBox="0 0 24 25" fill="none" xmlns="http://www.w3.org/2000/svg">
<path fill-rule="evenodd" clip-rule="evenodd" d="M12 3.68359C19.5157 3.68359 23.7244 11.8836 23.9248 12.2836C24.0251 12.4836 24.0251 12.8836 23.9248 13.0836C23.7244 13.4836 19.5157 21.6836 12 21.6836C4.92586 21.6836 0.78149 14.4187 0.151837 13.315C0.112538 13.2461 0.0869305 13.2012 0.0751566 13.1836C-0.0250522 12.8836 -0.0250522 12.5836 0.0751566 12.2836C0.275574 11.8836 4.48434 3.68359 12 3.68359ZM2.07933 12.6836C3.08142 14.2836 6.58873 19.6836 12 19.6836C17.4113 19.6836 20.9186 14.2836 21.9207 12.6836C20.9186 11.0836 17.4113 5.68359 12 5.68359C6.58873 5.68359 2.98121 11.0836 2.07933 12.6836ZM12 8.68359C9.79541 8.68359 7.99165 10.4836 7.99165 12.6836C7.99165 14.8836 9.79541 16.6836 12 16.6836C14.2046 16.6836 16.0084 14.8836 16.0084 12.6836C16.0084 10.4836 14.2046 8.68359 12 8.68359ZM9.99582 12.6836C9.99582 13.7836 10.8977 14.6836 12 14.6836C13.1023 14.6836 14.0042 13.7836 14.0042 12.6836C14.0042 11.5836 13.1023 10.6836 12 10.6836C10.8977 10.6836 9.99582 11.5836 9.99582 12.6836Z" fill="black"/>
<mask id="mask0_2152_1963" style="mask-type:alpha" maskUnits="userSpaceOnUse" x="0" y="3" width="24" height="19">
<path fill-rule="evenodd" clip-rule="evenodd" d="M12 3.68359C19.5157 3.68359 23.7244 11.8836 23.9248 12.2836C24.0251 12.4836 24.0251 12.8836 23.9248 13.0836C23.7244 13.4836 19.5157 21.6836 12 21.6836C4.92586 21.6836 0.78149 14.4187 0.151837 13.315C0.112538 13.2461 0.0869305 13.2012 0.0751566 13.1836C-0.0250522 12.8836 -0.0250522 12.5836 0.0751566 12.2836C0.275574 11.8836 4.48434 3.68359 12 3.68359ZM2.07933 12.6836C3.08142 14.2836 6.58873 19.6836 12 19.6836C17.4113 19.6836 20.9186 14.2836 21.9207 12.6836C20.9186 11.0836 17.4113 5.68359 12 5.68359C6.58873 5.68359 2.98121 11.0836 2.07933 12.6836ZM12 8.68359C9.79541 8.68359 7.99165 10.4836 7.99165 12.6836C7.99165 14.8836 9.79541 16.6836 12 16.6836C14.2046 16.6836 16.0084 14.8836 16.0084 12.6836C16.0084 10.4836 14.2046 8.68359 12 8.68359ZM9.99582 12.6836C9.99582 13.7836 10.8977 14.6836 12 14.6836C13.1023 14.6836 14.0042 13.7836 14.0042 12.6836C14.0042 11.5836 13.1023 10.6836 12 10.6836C10.8977 10.6836 9.99582 11.5836 9.99582 12.6836Z" fill="white"/>
</mask>
<g mask="url(#mask0_2152_1963)">
<rect y="0.683594" width="24" height="24" fill="#B5BBC9"/>
</g>
</svg>
