<svg width="64" height="62" viewBox="0 0 64 62" fill="none" xmlns="http://www.w3.org/2000/svg">
<path fill-rule="evenodd" clip-rule="evenodd" d="M2 30C2 46.5685 15.4315 60 32 60C48.5685 60 62 46.5685 62 30C62 13.4315 48.5685 0 32 0C15.4315 0 2 13.4315 2 30Z" fill="#DF5060" stroke="white" stroke-width="4"/>
<path fill-rule="evenodd" clip-rule="evenodd" d="M41.7227 39.7228C36.331 45.1145 27.669 45.1145 22.2773 39.7228C16.8856 34.3312 16.8856 25.6691 22.2773 20.2774C27.669 14.8857 36.331 14.8857 41.7227 20.2774C47.1144 25.6691 47.1144 34.3312 41.7227 39.7228ZM36.773 33.5357C36.773 34.2428 36.2426 34.7731 35.5355 34.7731C34.8284 34.7731 34.2981 34.2428 34.2981 33.5357L34.2981 29.4698L29.3483 34.4196C28.818 34.9499 28.1109 34.9499 27.5806 34.4196C27.0503 33.8892 27.0503 33.1821 27.5806 32.6518L32.5303 27.702H28.4645C27.7574 27.702 27.227 27.1717 27.227 26.4646C27.227 25.7575 27.7574 25.2272 28.4645 25.2272H35.5355C35.7123 25.2272 35.8891 25.2272 35.9775 25.3156C36.1543 25.3156 36.331 25.4923 36.4194 25.5807C36.5078 25.6691 36.6846 25.8459 36.6846 26.0227C36.773 26.1111 36.773 26.2878 36.773 26.4646L36.773 33.5357ZM39.9549 22.0452C44.3744 26.4646 44.3744 33.5357 39.9549 37.9551C35.5355 42.3745 28.4645 42.3745 24.045 37.9551C19.6256 33.5357 19.6256 26.4646 24.045 22.0452C28.4645 17.6258 35.5355 17.6258 39.9549 22.0452Z" fill="black"/>
<mask id="mask0_2003_16608" style="mask-type:alpha" maskUnits="userSpaceOnUse" x="18" y="16" width="28" height="28">
<path fill-rule="evenodd" clip-rule="evenodd" d="M41.7227 39.7228C36.331 45.1145 27.669 45.1145 22.2773 39.7228C16.8856 34.3312 16.8856 25.6691 22.2773 20.2774C27.669 14.8857 36.331 14.8857 41.7227 20.2774C47.1144 25.6691 47.1144 34.3312 41.7227 39.7228ZM36.773 33.5357C36.773 34.2428 36.2426 34.7731 35.5355 34.7731C34.8284 34.7731 34.2981 34.2428 34.2981 33.5357L34.2981 29.4698L29.3483 34.4196C28.818 34.9499 28.1109 34.9499 27.5806 34.4196C27.0503 33.8892 27.0503 33.1821 27.5806 32.6518L32.5303 27.702H28.4645C27.7574 27.702 27.227 27.1717 27.227 26.4646C27.227 25.7575 27.7574 25.2272 28.4645 25.2272H35.5355C35.7123 25.2272 35.8891 25.2272 35.9775 25.3156C36.1543 25.3156 36.331 25.4923 36.4194 25.5807C36.5078 25.6691 36.6846 25.8459 36.6846 26.0227C36.773 26.1111 36.773 26.2878 36.773 26.4646L36.773 33.5357ZM39.9549 22.0452C44.3744 26.4646 44.3744 33.5357 39.9549 37.9551C35.5355 42.3745 28.4645 42.3745 24.045 37.9551C19.6256 33.5357 19.6256 26.4646 24.045 22.0452C28.4645 17.6258 35.5355 17.6258 39.9549 22.0452Z" fill="white"/>
</mask>
<g mask="url(#mask0_2003_16608)">
<rect x="47" y="15" width="30" height="30" transform="rotate(90 47 15)" fill="white"/>
</g>
</svg>
