<svg width="275" height="211" viewBox="0 0 275 211" fill="none" xmlns="http://www.w3.org/2000/svg">
<path d="M42.4765 206.181C36.6667 204.45 27.5 200.858 19.274 192.902C5.31186 179.403 2.98791 161.963 1.65995 150.857C-2.98794 111.777 13.999 69.935 41.5912 42.347C61.0312 22.9175 82.9058 13.3593 91.2793 10.0628C92.4044 9.62078 104.725 4.79564 117.857 2.32782C123.317 1.29649 199.158 -11.724 243.258 39.4556C267.088 67.0804 269.485 99.3278 271.477 126.198C273.119 148.353 269.817 160.526 266.313 168.924C259.083 186.272 247.094 196.954 240.122 202.258" fill="#E0E9F8"/>
<g opacity="0.5">
<path d="M32.4799 193.197C17.9091 192.295 5.57006 179.845 5.47784 169.348C5.40407 160.673 13.7223 158.427 13.999 147.487C14.2387 138.039 8.13378 135.94 9.16664 127.892C10.2548 119.439 18.5362 109.752 28.496 109.715C39.9497 109.696 47.733 122.477 48.397 132.717C48.8397 139.678 44.5791 140.636 44.7082 147.192C44.948 160.6 61.7136 164.43 61.4738 174.449C61.2709 183.657 46.8293 194.081 32.4799 193.197Z" fill="#99B9EE"/>
</g>
<rect x="31.5023" y="123.932" width="0.848424" height="76.355" fill="#99B9EE"/>
<path d="M31.8158 150.434C24.7334 149.955 23.7558 139.586 23.7189 139.144L24.5674 139.071C24.5674 139.163 25.5264 149.163 31.8712 149.587L31.8158 150.434Z" fill="#99B9EE"/>
<path d="M31.8159 177.119C26.7438 176.788 26.0613 169.421 26.0244 169.108L26.8729 169.034C26.8729 169.108 27.5369 175.996 31.8712 176.291L31.8159 177.119Z" fill="#99B9EE"/>
<path d="M31.5576 166.051L31.5208 165.204C37.4597 164.909 38.3266 158.298 38.3266 158.224L39.175 158.316C39.1566 158.408 38.1975 165.719 31.5576 166.051Z" fill="#99B9EE"/>
<path d="M31.8343 185.628L31.7974 184.781C35.9842 184.578 36.5929 180.029 36.6113 179.827L37.4597 179.937C37.4413 179.992 36.7404 185.407 31.8343 185.628Z" fill="#99B9EE"/>
<g opacity="0.5">
<path d="M61.0681 194.376C53.8011 193.934 47.6408 187.727 47.6039 182.479C47.5671 178.151 51.717 177.027 51.8645 171.576C51.9936 166.861 48.9319 165.812 49.4483 161.815C49.9832 157.598 54.1147 152.773 59.0946 152.754C64.7937 152.736 68.6854 159.108 69.0174 164.228C69.2388 167.69 67.1177 168.169 67.173 171.447C67.2837 178.132 75.6573 180.048 75.5282 185.038C75.4175 189.624 68.2243 194.818 61.0681 194.376Z" fill="#99B9EE"/>
</g>
<rect x="60.5885" y="159.826" width="0.424212" height="38.067" fill="#99B9EE"/>
<path d="M60.7361 173.049C57.2133 172.81 56.7153 167.635 56.6968 167.414L57.1211 167.377C57.1211 167.432 57.6006 172.405 60.773 172.626L60.7361 173.049Z" fill="#99B9EE"/>
<path d="M60.7361 186.364C58.2092 186.199 57.8588 182.515 57.8404 182.368L58.2646 182.331C58.2646 182.368 58.5966 185.794 60.7545 185.941L60.7361 186.364Z" fill="#99B9EE"/>
<path d="M60.607 180.839L60.5885 180.416C63.5396 180.269 63.9822 176.972 63.9822 176.935L64.4064 176.99C64.4064 177.027 63.9269 180.674 60.607 180.839Z" fill="#99B9EE"/>
<path d="M60.7545 190.6L60.7361 190.177C62.8203 190.085 63.1338 187.801 63.1338 187.709L63.558 187.764C63.5396 187.801 63.1891 190.49 60.7545 190.6Z" fill="#99B9EE"/>
<path d="M137.518 210.048C213.447 210.048 275 207.17 275 203.621C275 200.071 213.447 197.193 137.518 197.193C61.5894 197.193 0.0368652 200.071 0.0368652 203.621C0.0368652 207.17 61.5894 210.048 137.518 210.048Z" fill="#C5D6F1"/>
<rect x="46.4913" y="61.927" width="65.4762" height="3.09398" fill="#C5D6F1"/>
<rect x="11.0235" y="82.0043" width="65.4762" height="3.09398" fill="#C5D6F1"/>
<rect x="41.9725" y="98.9435" width="65.4762" height="3.09398" fill="#C5D6F1"/>
<path d="M159.36 116.441L158.331 126.241C158.362 125.956 161.577 125.135 161.831 125.04C165.584 123.791 169.353 122.637 173.138 121.531C187.218 117.389 201.233 113.754 214.616 107.621C215.154 107.384 215.693 107.115 216.073 106.672C217.181 105.408 215.708 98.1369 216.548 97.8049C197.892 105.329 178.586 110.545 159.36 116.441Z" fill="#347AF0"/>
<path d="M187.392 86.519C187.392 87.009 186.315 89.9332 185.776 91.3558C185.681 91.6245 185.602 91.83 185.539 91.9565C185.523 92.0197 185.491 92.0671 185.491 92.0829C185.491 92.0987 185.476 92.0987 185.476 92.1145C183.765 96.3981 177.145 113.311 172.885 113.153C168.292 112.979 156.383 95.671 156.383 95.671L161.799 91.9091C161.799 91.9091 170.842 105.218 172.331 106.451C173.788 107.637 181.5 91.261 181.928 90.3284C181.516 89.3642 180.392 86.6297 180.772 86.1555C181.215 85.5706 181.548 86.5348 181.548 86.5348C181.548 86.5348 181.421 85.5074 182.387 85.1754C183.353 84.8435 183.417 85.0332 184.003 84.8435C184.589 84.6538 185.159 84.4483 185.745 84.9067C186.362 85.3651 187.392 85.8709 187.392 86.519Z" fill="#B97A59"/>
<path d="M93.6522 155.246V169.156L98.1499 160.115C98.1499 160.115 98.4825 160.178 99.0843 160.304C98.5775 158.85 98.6092 157.095 98.2766 155.499C95.4576 155.341 93.6522 155.246 93.6522 155.246Z" fill="#0B4870"/>
<path d="M98.2766 155.483C98.6092 157.08 98.5616 158.834 99.0843 160.288C99.9553 160.462 101.381 160.731 103.186 161.063C102.505 159.261 101.856 157.459 101.349 155.625C100.225 155.578 99.1951 155.531 98.2766 155.483Z" fill="white"/>
<path d="M144.236 148.481C141.258 147.137 138.281 146.347 135.383 144.988C133.102 150.393 130.901 154.63 129.412 155.23C126.356 156.495 110.899 156.036 101.333 155.61C101.824 157.443 102.473 159.245 103.17 161.047C112.229 162.691 130.869 165.726 135.953 163.797C138.519 162.817 143.365 156.21 147.799 149.429C146.596 149.319 145.424 149.018 144.236 148.481Z" fill="#B97A59"/>
<path d="M158.648 118.385H144.948C144.948 118.385 140.007 134.065 135.383 144.988C138.281 146.347 141.258 147.137 144.236 148.481C145.408 149.018 146.596 149.319 147.799 149.445C152.867 141.684 157.412 133.686 157.412 133.686L158.648 118.385Z" fill="#0B4870"/>
<path d="M159.059 121.863L142.304 120.93C142.304 120.93 137.394 126.952 139.231 132.058C140.657 135.994 149.161 142.142 155.306 149.998C159.344 149.161 163.605 148.212 167.643 146.805C163.985 136.168 159.059 121.863 159.059 121.863Z" fill="#0E538C"/>
<path d="M176.005 197.924C177.525 197.086 178.982 196.122 180.423 195.095C180.265 194.399 180.059 193.482 179.822 192.392C178.381 193.561 176.718 194.51 175.055 195.474C175.387 196.343 175.704 197.165 176.005 197.924Z" fill="white"/>
<path d="M167.659 146.805C163.62 148.196 159.36 149.161 155.322 149.998C157.127 152.306 158.727 154.756 159.883 157.348C162.496 163.181 170.684 184.172 175.055 195.458C176.718 194.494 178.365 193.545 179.822 192.376C177.779 183.303 172.901 161.932 171.143 156.858C170.462 154.962 169.163 151.2 167.659 146.805Z" fill="#B97A59"/>
<path d="M180.724 196.501C180.724 196.501 180.614 195.996 180.408 195.095C178.982 196.122 177.525 197.086 175.989 197.924C177.145 200.896 177.858 202.745 177.858 202.745L190.939 196.723L180.724 196.501Z" fill="#0B4870"/>
<path d="M161.562 86.2345L162.322 84.5274C161.593 83.4842 161.086 82.2829 160.58 81.1606C160.105 82.7254 160.627 84.6538 161.562 86.2345Z" fill="#B97A59"/>
<path d="M156.605 70.0327L152.519 85.539L159.677 90.439L161.564 86.2141C161.471 86.0576 161.397 85.9273 161.313 85.7653C160.94 85.039 160.654 84.253 160.515 83.4675C160.437 83.0292 160.414 82.587 160.431 82.1588C160.445 81.8132 160.481 81.4764 160.58 81.1606C161.086 82.2828 161.577 83.4841 162.322 84.5274H162.338C168.672 89.2219 168.878 71.4711 168.878 71.4711L156.605 70.0327Z" fill="#B97A59"/>
<path d="M152.724 85.3335C152.724 85.3335 160.691 89.8226 162.733 92.889C164.776 95.9555 165.188 101.045 164.982 104.317C164.776 107.589 163.652 108.711 162.638 110.956C161.609 113.201 160.089 124.518 160.089 124.518C160.089 124.518 141.385 122.985 140.562 122.779C139.738 122.574 146.089 103.195 145.265 97.6784C144.442 92.1619 152.724 85.3335 152.724 85.3335Z" fill="#FDB32A"/>
<path d="M76.9916 137.258C89.0753 137.321 98.2449 126.241 114.193 120.93C125.849 117.057 134.29 116.251 146.485 117.658C149.177 117.958 151.806 118.417 154.467 118.907C156.589 119.302 158.695 119.729 160.786 120.203C161.625 120.393 162.575 120.898 163.193 120.345C164.745 118.986 164.428 115.919 164.206 114.117C163.89 111.525 162.829 109.723 160.469 108.427C157.333 106.704 153.532 106.135 150.016 105.961C126.419 104.791 111.548 107.257 75.7721 126.241C73.8083 127.268 76.3739 137.258 76.9916 137.258Z" fill="#347AF0"/>
<path d="M144.948 117.168C144.948 118.195 144.743 118.195 144.743 118.796C144.743 119.413 144.743 120.013 144.125 120.424C143.507 120.835 142.7 121.641 142.082 121.452C141.623 121.294 139.184 119.333 137.996 118.369C137.727 118.148 137.537 117.99 137.426 117.911C137.378 117.863 137.347 117.848 137.347 117.848C133.831 114.844 119.91 103.179 121.415 99.2117C123.046 94.9281 143.286 89.2219 143.286 89.2219L145.123 95.5446C145.123 95.5446 129.586 99.8281 127.955 100.856C126.356 101.851 139.437 114.386 140.181 115.097C141.243 115.018 144.172 114.829 144.505 115.334C144.917 115.951 143.887 115.951 143.887 115.951C143.887 115.951 144.948 116.141 144.948 117.168Z" fill="#B97A59"/>
<path d="M138.012 118.369C137.885 118.275 137.695 118.116 137.442 117.911C137.553 117.99 137.758 118.148 138.012 118.369Z" fill="#FFE3CA"/>
<path d="M142.098 89.0006L143.523 97.7733C143.523 97.7733 153.564 97.0304 152.519 90.0281C151.901 85.95 142.098 89.0006 142.098 89.0006Z" fill="#FDB32A"/>
<path d="M185.808 91.3558C185.745 91.4981 185.666 91.7036 185.555 91.9565C185.602 91.8142 185.681 91.6087 185.792 91.3558H185.808Z" fill="#FFE3CA"/>
<path d="M185.507 92.0987C185.491 92.1146 185.491 92.1304 185.491 92.1304C185.491 92.1146 185.491 92.1146 185.507 92.0987Z" fill="#FFE3CA"/>
<path d="M159.265 76.9718L160.089 76.7664C160.089 76.7664 160.912 75.7389 161.118 74.7273C161.118 74.7273 167.247 75.9286 168.878 73.4944C170.509 71.0602 170.509 67.5985 167.849 66.9821C165.188 66.3656 163.351 68.1992 161.308 67.1876C159.265 66.1601 157.428 64.7375 154.15 67.1876C150.872 69.6376 152.107 71.0602 147.403 70.4595C142.7 69.8589 138.709 67.7092 135.335 70.254C133.498 71.645 132.263 74.5376 128.589 73.7157C124.915 72.8937 120.829 76.5767 119.593 80.2438C118.374 83.9109 111.516 80.5441 111.516 88.0997C111.516 90.36 119.277 97.6943 128.684 92.9997C138.091 88.3052 138.091 89.9332 140.752 90.1387C143.412 90.3442 149.541 90.7552 151.79 88.9216C154.039 87.0881 158.03 79.8486 158.03 78.8212C158.03 78.8212 155.987 76.1657 157.206 75.7547C158.442 75.3438 159.265 76.9718 159.265 76.9718Z" fill="#0B4870"/>
</svg>
